<svg xmlns="http://www.w3.org/2000/svg" viewBox="0 0 600 400"><path fill="#F45839" d="M305.994,310.607H199.182c-6.117,0-11.078-4.959-11.078-11.076V53.044c0-6.118,4.96-11.076,11.078-11.076   h106.812c6.118,0,11.077,4.958,11.077,11.076v246.488C317.071,305.649,312.113,310.607,305.994,310.607"/><path fill="#F6AB1C" d="M329.236,53.044V299.53c0,6.118-4.954,11.077-11.07,11.077H211.345c-6.109,0-11.069-4.959-11.069-11.077   V53.044c0-6.117,4.959-11.076,11.069-11.076h106.821C324.282,41.968,329.236,46.926,329.236,53.044"/><path fill="#C9E8FF" d="M311.409,48.064h-26.943l-5.447,5.73h-14.264h-14.264l-5.444-5.73h-26.944   c-6.119,0-11.076,4.961-11.076,11.079v224.665c0,6.119,4.957,11.078,11.076,11.078h93.305c6.119,0,11.078-4.959,11.078-11.078   V59.142C322.487,53.025,317.528,48.064,311.409,48.064"/><rect width="3.571" height="23.598" x="192.172" y="69.91" fill="#F6AB1C"/><rect width="3.571" height="23.597" x="192.172" y="103.643" fill="#F6AB1C"/><path fill="#7F7F7F" d="M329.238,259.836c0,0,0,0.004-0.002,0.01v39.684c0,2.88-1.098,5.504-2.898,7.474   c1.801-1.97,2.9-4.593,2.9-7.473V259.836"/><path fill="#EE2C1C" d="M188.104,140.26v159.271c0,6.117,4.96,11.076,11.078,11.076h12.164c-6.109,0-11.069-4.959-11.069-11.077   v-65.136h-0.004c0,0-3.36-7.142-6.317-24.534C191.001,192.466,188.104,140.26,188.104,140.26"/><path fill="#F1810E" d="M329.236,259.846c-0.039,0.211-0.745,3.805-3.782,7.546c0.42,10.873-0.051,28.503-0.496,40.886   c0.495-0.385,0.957-0.811,1.379-1.274c1.8-1.97,2.898-4.593,2.898-7.474V259.846 M207.026,234.395h-6.75v65.136   c0,6.118,4.959,11.077,11.069,11.077h0.004h84.545c0.104-4.241,0.25-9.738,0.432-15.722h-78.223   c-6.119,0-11.076-4.959-11.076-11.078v-0.833l-0.002,0.001v-6.012l0.002-21.355l-0.002,0.001V234.395"/><path fill="#AEDCFF" d="M251.297,258.821l-44.271,24.154l0.002,0.832c0,6.119,4.957,11.078,11.076,11.078h78.223   c0.19-6.229,0.42-12.987,0.688-19.396c-0.406-0.053-0.818-0.111-1.235-0.173C283.727,273.51,266.99,266.523,251.297,258.821    M225.799,245.367l-18.773,10.242l0.002,21.353l38.519-21.016C238.39,252.305,231.615,248.628,225.799,245.367"/><polyline fill="#F45839" points="258.397 153.753 222.593 153.753 222.593 117.949 258.397 117.949 258.397 153.753"/><polyline fill="#3492CF" points="306.919 153.753 271.115 153.753 271.115 117.949 306.919 117.949 306.919 153.753"/><polyline fill="#3492CF" points="258.397 200.71 222.593 200.71 222.593 164.905 258.397 164.905 258.397 200.71"/><polyline fill="#3492CF" points="306.919 200.71 271.115 200.71 271.115 164.905 306.919 164.905 306.919 200.71"/><polyline fill="#3492CF" points="282.463 247.666 246.658 247.666 246.658 211.861 282.463 211.861 282.463 247.666"/><path fill="#F6AB1C" d="M241.735,137.403h-8.676v-13.021h8.676c3.433,0,6.226,2.921,6.226,6.51   C247.961,134.483,245.168,137.403,241.735,137.403 M236.334,133.981h5.401c1.627,0,2.952-1.386,2.952-3.088   c0-1.702-1.325-3.087-2.952-3.087h-5.401V133.981"/><path fill="#F6AB1C" d="M243.296,147h-10.236v-13.019h10.236c3.434,0,6.226,2.92,6.226,6.509   C249.522,144.08,246.73,147,243.296,147 M236.334,143.577h6.961c1.628,0,2.953-1.386,2.953-3.087c0-1.702-1.325-3.087-2.953-3.087   h-6.961V143.577"/><rect width="3.229" height="3.423" x="231.468" y="124.383" fill="#F6AB1C"/><polyline fill="#F6AB1C" points="234.697 147 231.468 147 231.468 143.577 234.697 143.577 234.697 147"/><polyline fill="#F6AB1C" points="239.173 126.095 235.898 126.095 235.898 121.821 239.173 121.821 239.173 126.095"/><polyline fill="#F6AB1C" points="244.046 126.095 240.771 126.095 240.771 121.821 244.046 121.821 244.046 126.095"/><polyline fill="#F6AB1C" points="239.953 149.881 236.68 149.881 236.68 145.607 239.953 145.607 239.953 149.881"/><polyline fill="#F6AB1C" points="244.826 149.881 241.553 149.881 241.553 145.607 244.826 145.607 244.826 149.881"/><path fill="#1A5CB7" d="M288.804,141.306h-8.605l-5.437,2.966c0.142,0.76,0.808,1.335,1.609,1.335h10.823   C287.726,144.132,288.267,142.685,288.804,141.306 M291.379,135.206l-10.713,5.845h8.237c0.488-1.245,0.971-2.432,1.441-3.533l0,0   l0.02-0.04C290.708,136.67,291.048,135.909,291.379,135.206"/><path fill="#0D2E94" d="M288.903,141.051h-8.237l-0.468,0.255h8.605C288.837,141.221,288.87,141.136,288.903,141.051"/><path fill="#1A5CB7" d="M254.227,171.862h-27.463c-1.057,0-1.914,0.856-1.914,1.914v18.064c0,1.057,0.857,1.913,1.914,1.913h24.175   h-24.175c-1.057,0-1.914-0.856-1.914-1.913v-12.474c0-1.057,0.857-1.914,1.914-1.914h27.463c1.058,0,1.914,0.857,1.914,1.914v-5.59   C256.141,172.718,255.284,171.862,254.227,171.862"/><path fill="#0D2E94" d="M254.227,177.452h-27.463c-1.057,0-1.914,0.857-1.914,1.914v12.474c0,1.057,0.857,1.913,1.914,1.913h24.175   l5.202-2.838v-1.812h-6.109c-1.738,0-3.147-1.409-3.147-3.147c0-1.738,1.409-3.147,3.147-3.147h6.109v-3.442   C256.141,178.309,255.284,177.452,254.227,177.452"/><path fill="#164EDF" d="M249.915,187.388c-0.791,0-1.432-0.641-1.432-1.433c0-0.791,0.641-1.434,1.432-1.434   c0.792,0,1.434,0.643,1.434,1.434C251.349,186.747,250.707,187.388,249.915,187.388 M256.141,182.808h-6.109   c-1.738,0-3.147,1.409-3.147,3.147c0,1.738,1.409,3.147,3.147,3.147h6.109V182.808"/><path fill="#2585F5" d="M249.915,184.521c-0.791,0-1.432,0.643-1.432,1.434c0,0.792,0.641,1.433,1.432,1.433   c0.792,0,1.434-0.641,1.434-1.433C251.349,185.164,250.707,184.521,249.915,184.521"/><polyline fill="#1A5CB7" points="281.381 189.37 277.766 189.37 277.766 191.343 281.381 189.37"/><path fill="#1A5CB7" d="M283.244,182.14l-4.205,2.294v4.936h2.343l1.863-1.016V182.14 M283.03,176.244h-3.991v2.178L283.03,176.244   "/><polyline fill="#1A5CB7" points="291.693 177.53 287.488 179.824 287.488 186.038 291.693 183.744 291.693 177.53"/><path fill="#1A5CB7" d="M298.767 176.244h-2.794v5.165l2.436-1.329C298.499 179.077 298.619 177.778 298.767 176.244M298.975 173.557l-2.273 1.24h2.206c.039-.393.079-.797.121-1.213L298.975 173.557M283.317 171.974l-5.552 2.823h7.917l3.958-2.16C287.556 172.564 285.368 172.343 283.317 171.974M285.683 174.797h-7.917v1.447h5.265L285.683 174.797M298.908 174.797h-2.206l-2.652 1.447h4.717C298.812 175.782 298.859 175.299 298.908 174.797M262.574 236.836l-8.777.089v4.343h8.777V236.836M270.045 227.461h-2.976v4.508h2.976c.534 0 1.306.906 1.306 2.323v.146c0 1.418-.773 2.323-1.306 2.323l-2.976.03v4.478h2.976c3.198 0 5.8-3.065 5.8-6.831v-.146C275.845 230.525 273.243 227.461 270.045 227.461M259.068 227.216l-4 2.183c1.064 1.566 2.699 2.57 4.53 2.57h2.977v-4.508h-2.977C259.434 227.461 259.248 227.376 259.068 227.216M275.845 218.306h-.444l-8.15 4.447 8.594-.068V218.306"/><polyline fill="#1A5CB7" points="267.069 222.851 262.574 225.303 262.574 227.461 262.574 231.969 262.574 236.836 262.574 241.269 262.574 243.772 267.069 243.772 267.069 241.269 267.069 236.791 267.069 231.969 267.069 227.461 267.069 222.851"/><path fill="#3492CF" d="M303.146,88.712h-76.174c-4.034,0-7.305-3.271-7.305-7.304s3.271-7.304,7.305-7.304h76.174   c4.034,0,7.304,3.271,7.304,7.304S307.179,88.712,303.146,88.712"/><polyline fill="#3492CF" points="303.3 96.472 227.037 96.472 227.037 93.507 303.3 93.507 303.3 96.472"/><polyline fill="#FCE630" points="207.026 143.331 207.026 143.331 207.026 149.343 207.028 143.33"/><path fill="#EFF8FF" d="M222.593,134.837l-15.567,8.493l0.002,6.011l15.565-8.492V134.837 M322.486,80.334l-24.143,13.173h4.957   v2.965h-10.392l-39.362,21.477h4.852v3.366l64.089-34.967V80.334"/><path fill="#FC9661" d="M233.059,129.127l-10.467,5.711v6.012l10.467-5.711V129.127 M241.735,127.806h-5.401v5.546l7.8-4.256   C243.598,128.316,242.722,127.806,241.735,127.806 M258.397,117.949h-4.852l-9.5,5.183v1.715c1.254,0.526,2.307,1.466,3.005,2.658   l11.347-6.191V117.949"/><path fill="#FCE630" d="M244.046,124.848v1.247h-3.274v-1.176l-1.598,0.872v0.304h-0.557l-5.557,3.032v6.012v-1.158h2.123   l1.152-0.629v-5.546h5.401c0.987,0,1.863,0.509,2.399,1.29l2.916-1.591C246.353,126.314,245.299,125.373,244.046,124.848"/><polyline fill="#FCE630" points="235.182 133.981 233.059 133.981 233.059 135.139 235.182 133.981"/><polyline fill="#FCE630" points="239.173 125.791 238.617 126.095 239.173 126.095 239.173 125.791"/><polyline fill="#FCE630" points="244.046 123.132 240.771 124.919 240.771 126.095 244.046 126.095 244.046 124.848 244.046 123.132"/><polyline fill="#59DFF1" points="303.3 93.507 298.343 93.507 292.908 96.472 303.3 96.472 303.3 93.507"/><path fill="#EFF8FF" d="M280.832,88.712H269.81l-8.789,4.795h11.022L280.832,88.712 M322.486,59.973l-25.9,14.13h6.559   c1.129,0,2.199,0.256,3.153,0.714l16.187-8.831V59.973"/><polyline fill="#FCE630" points="207.026 122.966 207.026 122.966 207.026 128.98 207.028 122.965"/><polyline fill="#EFF8FF" points="266.608 96.472 255.586 96.472 207.026 122.966 207.028 128.979 222.593 120.487 222.593 117.949 227.245 117.949 266.608 96.472"/><polyline fill="#FC9661" points="227.245 117.949 222.593 117.949 222.593 120.487 227.245 117.949"/><path fill="#59DFF1" d="M303.146,74.103h-6.559L269.81,88.712h11.022l25.467-13.894C305.344,74.36,304.275,74.103,303.146,74.103"/><polyline fill="#59DFF1" points="272.044 93.507 261.021 93.507 255.586 96.472 266.608 96.472 272.044 93.507"/><polyline fill="#FCE630" points="207.026 155.556 207.026 155.556 207.026 181.229 207.028 155.555"/><path fill="#EFF8FF" d="M222.593,147.063l-15.567,8.493l0.002,25.672l15.565-8.492v-7.831h14.353l20.441-11.152h-34.793V147.063    M271.115,120.59l-12.718,6.939v25.673l12.718-6.939V120.59 M310.821,98.927l-34.865,19.022h30.964v5.603   c2.554-0.965,4.637-1.628,5.353-1.85l0.168-0.054c0.602-0.204,1.239-0.398,1.906-0.58l-0.078-2.777   c-0.096-0.057-0.192-0.114-0.281-0.173c-1.923-1.248-3.111-3.26-3.58-5.556c-0.288-1.407-0.101-4.245,0.201-7.002   C310.547,105.398,309.579,102.693,310.821,98.927"/><path fill="#FC9661" d="M243.296,137.403h-1.561l0,0h-1.438l-3.963,2.162v4.011h6.961c1.628,0,2.953-1.386,2.953-3.087   C246.249,138.788,244.924,137.403,243.296,137.403 M258.397,127.528l-10.961,5.98c-0.221,0.526-0.508,1.016-0.848,1.459   c1.761,1.151,2.934,3.196,2.934,5.523c0,3.038-2,5.596-4.696,6.311v3.08h-3.273V147h-1.6v2.881h-3.273V147h-3.621h-1.591v-3.423   h1.591v-2.225l-10.467,5.71v6.69h34.793l1.011-0.552V127.528"/><path fill="#59DFF1" d="M306.919,117.949h-30.964l-4.84,2.641v25.672l3.646-1.989c-0.018-0.098-0.028-0.199-0.028-0.302v-15.265   c0-0.904,0.732-1.636,1.637-1.636h22.641c2.533-1.371,5.439-2.585,7.907-3.518V117.949"/><polyline fill="#59DFF1" points="236.945 164.905 222.593 164.905 222.593 172.736 236.945 164.905"/><path fill="#FCE630" d="M247.437,133.508l-1.767,0.964c0.32,0.139,0.627,0.305,0.918,0.495   C246.929,134.525,247.215,134.035,247.437,133.508"/><path fill="#FCE630" d="M245.67,134.472l-5.372,2.931h1.438h1.561c1.628,0,2.953,1.385,2.953,3.087   c0,1.701-1.325,3.087-2.953,3.087h-6.961v-4.011l-3.275,1.787v2.225h1.637V147h-1.637h3.621v-1.393h3.273V147h1.6v-1.393h3.273   v1.194c2.696-0.715,4.696-3.273,4.696-6.311c0-2.327-1.173-4.372-2.934-5.523C246.297,134.777,245.99,134.611,245.67,134.472"/><polyline fill="#FCE630" points="234.697 143.577 233.059 143.577 231.468 143.577 231.468 147 233.059 147 234.697 147 234.697 143.577"/><polyline fill="#FCE630" points="239.953 145.607 236.68 145.607 236.68 147 236.68 149.881 239.953 149.881 239.953 147 239.953 145.607"/><polyline fill="#FCE630" points="244.826 145.607 241.553 145.607 241.553 147 241.553 149.881 244.826 149.881 244.826 146.801 244.826 145.607"/><path fill="#2C9DEA" d="M299.012,127.07h-22.641c-0.905,0-1.637,0.732-1.637,1.636v15.265c0,0.103,0.01,0.204,0.028,0.302   l5.437-2.966h-5.465v-0.255h5.932l10.713-5.845c0.097-0.206,0.193-0.407,0.288-0.603l0.005-0.021l0,0l0,0   c0.266-0.553,0.523-1.063,0.769-1.523h-17.707v-2.89h19.75C295.615,129.087,297.22,128.039,299.012,127.07"/><path fill="#164EDF" d="M294.484,130.17h-19.75v2.89h17.707c0.428-0.802,0.823-1.452,1.17-1.92   C293.855,130.814,294.149,130.49,294.484,130.17"/><polyline fill="#164EDF" points="280.667 141.051 274.734 141.051 274.734 141.306 280.199 141.306 280.667 141.051"/><polyline fill="#FCE630" points="207.026 217.711 207.026 217.711 207.026 223.725 207.028 217.71"/><path fill="#EFF8FF" d="M249.209,200.71h-11.021l-31.162,17.002l0.002,6.013L249.209,200.71 M271.115,182.744l-12.718,6.939v6.013   l12.718-6.939V182.744"/><path fill="#59DFF1" d="M258.397 189.683l-2.257 1.231v.925l0 0c0 1.057-.856 1.913-1.914 1.913h-3.288l-12.751 6.957h11.021l9.189-5.013V189.683M279.039 178.422l-7.923 4.323v6.013l7.923-4.323V178.422M294.05 176.244h-11.02.214v5.896l4.244-2.315v-3.581h4.205v1.286L294.05 176.244M299.295 170.992L299.295 170.992 299.295 170.992c-.023.026-.048.052-.074.078-.519.511-1.525.898-2.85 1.163l2.604 1.324.06-.033C299.116 172.719 299.203 171.873 299.295 170.992L299.295 170.992"/><path fill="#164EDF" d="M256.141,190.915l-5.202,2.838h3.288c1.058,0,1.914-0.856,1.914-1.913V190.915"/><polyline fill="#2C9DEA" points="283.244 176.244 283.03 176.244 279.039 178.422 279.039 184.434 283.244 182.14 283.244 176.244"/><polyline fill="#2C9DEA" points="291.693 176.244 287.488 176.244 287.488 179.824 291.693 177.53 291.693 176.244"/><path fill="#2C9DEA" d="M296.371,172.232c-1.44,0.288-3.252,0.431-5.219,0.431c-0.005,0-0.01,0-0.015,0l0,0l0,0   c-0.008,0-0.015,0-0.023,0c-0.483,0-0.975-0.009-1.473-0.026l-3.958,2.16h11.02l2.273-1.24L296.371,172.232"/><polyline fill="#2C9DEA" points="296.702 174.797 285.683 174.797 283.03 176.244 294.05 176.244 296.702 174.797"/><path fill="#EFF8FF" d="M271.743,247.666h-11.02l-15.177,8.281c1.894,0.964,3.814,1.925,5.75,2.875L271.743,247.666    M298.588,227.006l-16.125,8.798v6.012l15.993-8.726C298.498,231.116,298.542,229.081,298.588,227.006"/><polyline fill="#FBD918" points="207.026 276.964 207.026 276.964 207.026 282.975 207.028 276.963"/><path fill="#E7F5FF" d="M245.546,255.946l-38.52,21.017l0.002,6.011l44.269-24.153C249.36,257.871,247.44,256.91,245.546,255.946"/><polyline fill="#59DFF1" points="282.463 235.804 260.724 247.666 271.743 247.666 282.463 241.817 282.463 235.804"/><polyline fill="#FCE630" points="207.026 229.939 207.026 229.939 207.026 234.395 207.028 234.395 207.028 229.938"/><path fill="#EFF8FF" d="M271.115,194.971l-64.089,34.968l0.002,4.456c0,0,7.621,4.721,18.771,10.973l20.86-11.381v-22.125h35.805   v2.591l16.622-9.068c0.037-1.583,0.074-3.144,0.111-4.674h-28.08V194.971"/><polyline fill="#FBD918" points="207.028 234.395 207.026 234.395 207.026 255.609 207.028 234.395"/><path fill="#E7F5FF" d="M207.028,234.395L207.028,234.395v21.214l18.771-10.241C214.649,239.115,207.028,234.395,207.028,234.395"/><path fill="#59DFF1" d="M277.766 191.343l-6.65 3.628v5.739h28.08c.057-2.408.114-4.742.167-6.957h-21.597V191.343M295.973 181.408l-4.281 2.336v5.626h-4.205v-3.332l-4.244 2.315v1.016h-1.863 18.088l0 0h-3.496V181.408M262.574 222.789l-2.977.024c-.532 0-1.306.906-1.306 2.325 0 .982.372 1.719.777 2.079l3.506-1.913V222.789M267.25 222.752l-.182.001v.098L267.25 222.752M282.463 211.861h-35.805v22.125l8.409-4.588c-.794-1.169-1.27-2.651-1.27-4.261 0-3.767 2.601-6.832 5.8-6.832h2.977v-2.55h4.494v2.55h8.332l7.062-3.853V211.861"/><path fill="#2C9DEA" d="M299.469,189.37h-18.088l-3.616,1.973v2.41h21.597C299.4,192.233,299.435,190.769,299.469,189.37"/><polyline fill="#2C9DEA" points="283.244 188.354 281.381 189.37 283.244 189.37 283.244 188.354"/><polyline fill="#2C9DEA" points="291.693 183.744 287.488 186.038 287.488 189.37 291.693 189.37 291.693 183.744"/><path fill="#2C9DEA" d="M298.409 180.08l-2.436 1.329v7.962h3.496c.063-2.581.121-4.936.171-6.985l-1.431-.01C298.209 182.374 298.278 181.544 298.409 180.08M262.574 218.306h-2.977c-3.198 0-5.8 3.065-5.8 6.832 0 1.61.476 3.092 1.27 4.261l4-2.183c-.405-.36-.777-1.096-.777-2.079 0-1.419.774-2.325 1.306-2.325l2.977-.024V218.306M275.401 218.306h-8.332v4.448l.182-.001L275.401 218.306"/><polyline fill="#2C9DEA" points="267.069 215.756 262.574 215.756 262.574 218.306 262.574 222.789 262.574 225.303 267.069 222.851 267.069 222.754 267.069 218.306 267.069 215.756"/><path fill="#F6AB1C" d="M374.225,330.817c0,0,0.05,0.862,0.625,1.75c0.573,0.89,0.899,1.519,1.997,1.517   c1.099-0.004,12.392-4.368,16.811-8.926c4.418-4.557,18.186-24.471,18.237-25.449c0.053-0.979-1.752-2.478-2.894-1.968   C407.857,298.253,374.225,330.817,374.225,330.817"/><path fill="#26A2DA" d="M374.225,330.817c0,0-5.491-4.728-4.828-10.446c0.666-5.718,6.477-10.381,6.806-11.439   c0.329-1.056-2.793-3.994-2.05-5.361c0.742-1.367,3.839-4.677,3.839-4.677l2.95-5.747l15.359-6.118c0,0,0.886-0.703,3.195,0.877   c2.309,1.579,9.611,8.108,9.503,9.836c-0.108,1.729-13.338,20.656-19.255,25.209C383.827,327.502,375.426,331.692,374.225,330.817"/><path fill="#591C16" d="M373.638,315.758l-0.121-0.058l0.022-0.221c0.031-0.026,3.149-2.572,6.321-3.833   c3.183-1.266,5.031-1.132,5.108-1.129l0.144,0.169l-0.156,0.145l-0.013-0.001c-0.018,0-1.86-0.129-4.968,1.107   c-3.126,1.244-6.207,3.759-6.238,3.784L373.638,315.758"/><path fill="#7F7F7F" d="M369.345,321.106c0,0.01,0,0.02-0.001,0.03C369.344,321.126,369.344,321.116,369.345,321.106    M369.37,320.644c-0.013,0.153-0.021,0.305-0.025,0.457C369.349,320.949,369.358,320.797,369.37,320.644 M369.373,320.613   c0,0.002,0,0.003,0,0.005C369.373,320.616,369.373,320.614,369.373,320.613 M374.045,303.931c-0.186,1.409,2.266,3.861,2.176,4.916   C376.361,307.819,373.895,305.358,374.045,303.931"/><path fill="#1373C7" d="M373.638,315.758l-0.121-0.058l0.022-0.221c0.031-0.026,3.149-2.572,6.321-3.833   c2.601-1.035,4.311-1.134,4.891-1.134c0.13,0,0.203,0.005,0.217,0.006l0.144,0.169l-0.156,0.145l-0.013-0.001   c-0.003,0-0.061-0.004-0.17-0.004c-0.523,0-2.227,0.088-4.798,1.111c-3.126,1.244-6.207,3.759-6.238,3.784L373.638,315.758    M377.99,298.923c-0.018,0.019-3.098,3.316-3.84,4.678c-0.055,0.102-0.089,0.212-0.105,0.33c-0.15,1.428,2.315,3.888,2.176,4.916   c-0.003,0.041-0.011,0.08-0.022,0.116c-0.33,1.057-6.14,5.72-6.805,11.438c-0.008,0.071-0.016,0.141-0.022,0.211   c0,0.002,0,0.003,0,0.005c-0.001,0.009-0.002,0.018-0.002,0.026c-0.012,0.153-0.021,0.305-0.025,0.457c0,0.002,0,0.003,0,0.005   c0,0.01,0,0.02-0.001,0.03c-0.014,0.651,0.051,1.287,0.167,1.904c0-0.407,0.108-3.043,2.879-5.24   c2.949-2.341,7.18-4.939,10.831-4.939c0.073,0,0.145,0.001,0.217,0.003c0.277,0.008,0.553,0.012,0.824,0.012   c3.353,0,6.148-0.633,4.906-2.399c-0.574-0.817-2.454-1.091-4.553-1.091c-2.809,0-6.01,0.49-6.998,0.824   c-0.337,0.114-0.48,0.169-0.5,0.169c-0.079,0,1.963-0.944,1.288-2.609c-0.838-2.07-2.784-3.422-1.825-5.891   C377.532,299.432,377.983,298.931,377.99,298.923"/><path fill="#2C0E0B" d="M384.75,310.512c-0.58,0-2.29,0.1-4.891,1.134c-3.172,1.262-6.291,3.808-6.321,3.833l-0.022,0.221   l0.121,0.058l0.099-0.037c0.031-0.025,3.112-2.54,6.238-3.784c2.571-1.022,4.275-1.111,4.798-1.111c0.109,0,0.167,0.004,0.17,0.004   l0.013,0.001l0.156-0.145l-0.144-0.169C384.953,310.517,384.88,310.512,384.75,310.512"/><path fill="#FFF" d="M396.948,286.763c-0.449,0-0.646,0.156-0.646,0.156l-0.076,0.03l0.076,0.079l0,0   c0,0,0.197-0.156,0.646-0.156c0.505,0,1.328,0.197,2.549,1.033c2.268,1.551,9.357,7.881,9.502,9.741   c0-0.005,0.001-0.009,0.001-0.014c0.108-1.728-7.194-8.257-9.503-9.836C398.276,286.96,397.452,286.763,396.948,286.763"/><path fill="#41E3F4" d="M396.948,286.872c-0.449,0-0.646,0.156-0.646,0.156s0.561,2.128-1.177,4.979   c-1.329,2.18-4.645,5.73-6.71,7.208c1.024-0.492,3.076-1.518,5.308-2.859c3.084-1.853,3.805-4.227,5.868-4.227   c0.066,0,0.132,0.002,0.2,0.007c2.218,0.159,4.289,9.553,2.293,13.294c-1.99,3.728-3.434,7.565-3.444,7.593   c5.226-6.709,10.249-14.262,10.358-15.377c-0.145-1.86-7.234-8.19-9.502-9.741C398.275,287.069,397.452,286.872,396.948,286.872"/><path fill="#F6AB1C" d="M275.855,346.873c0,0-0.543,0.637-0.74,1.697c-0.197,1.063-0.396,1.752,0.37,2.601   c0.764,0.85,11.515,6.582,17.632,6.846c6.116,0.266,28.998-2.865,29.691-3.503c0.691-0.637,0.444-3.078-0.689-3.608   C320.983,350.375,275.855,346.873,275.855,346.873"/><path fill="#26A2DA" d="M275.855,346.873c0,0-0.641-7.536,3.649-10.984c4.291-3.449,11.443-2.176,12.38-2.653   c0.938-0.477,0.74-4.935,2.172-5.307c1.429-0.372,5.795-0.266,5.795-0.266l5.893-1.699l14.747,7.669c0,0,1.085,0.2,1.628,3.084   c0.542,2.885,1.232,13.074,0,14.188c-1.234,1.115-23.084,3.981-30.235,2.547C284.732,352.021,276.101,348.411,275.855,346.873"/><path fill="#591C16" d="M296.785,341.385l-0.124-0.062c-0.011-0.014-1.206-1.532-4.189-3.087c-3-1.561-6.821-2.207-6.858-2.214   l-0.129-0.179l0.18-0.129c0.039,0.006,3.908,0.659,6.952,2.245c3.054,1.589,4.245,3.109,4.293,3.173l-0.028,0.219L296.785,341.385"/><path fill="#7F7F7F" d="M279.391,335.981C279.391,335.981,279.391,335.981,279.391,335.981L279.391,335.981 M279.436,335.944   c-0.004,0.004-0.009,0.008-0.014,0.011C279.427,335.952,279.432,335.948,279.436,335.944 M294.077,327.923   c-0.007,0.002-0.014,0.004-0.021,0.006c-1.432,0.372-1.234,4.829-2.172,5.307c-0.936,0.477-8.088-0.796-12.38,2.653   c-0.014,0.011-0.028,0.022-0.042,0.034c0.014-0.011,0.028-0.023,0.042-0.034c4.291-3.449,11.443-2.176,12.38-2.653   c0.938-0.477,0.74-4.935,2.172-5.307C294.062,327.927,294.069,327.925,294.077,327.923 M297.118,327.664   c-1.112,0.025-2.291,0.09-2.96,0.24C294.826,327.754,296.006,327.689,297.118,327.664 M298.468,327.649L298.468,327.649   c0.005,0,0.01,0,0.015,0C298.477,327.649,298.472,327.649,298.468,327.649"/><path fill="#1373C7" d="M305.626,330.554c0,0.012,0,0.025,0,0.037c-0.002,0.044,0.001,0.079,0.007,0.107   C305.632,330.649,305.629,330.601,305.626,330.554 M296.785,341.385l-0.124-0.062c-0.011-0.014-1.206-1.532-4.189-3.087   c-3-1.561-6.821-2.207-6.858-2.214l-0.129-0.179l0.18-0.129c0.039,0.006,3.908,0.659,6.952,2.245   c3.054,1.589,4.245,3.109,4.293,3.173l-0.028,0.219L296.785,341.385 M298.468,327.649c-0.407,0-0.873,0.004-1.35,0.014   c-1.112,0.025-2.291,0.09-2.96,0.24c-0.028,0.006-0.055,0.013-0.081,0.019c-0.007,0.002-0.014,0.004-0.021,0.006   c-1.432,0.372-1.234,4.829-2.172,5.307c-0.936,0.477-8.088-0.796-12.38,2.653c-0.014,0.011-0.028,0.023-0.042,0.034   c-0.009,0.007-0.017,0.014-0.026,0.021c-0.004,0.004-0.009,0.008-0.014,0.011c-0.01,0.009-0.021,0.017-0.031,0.026l0,0   c-0.756,0.634-1.354,1.395-1.826,2.219c0.005-0.005,1.322-1.252,4.407-1.252c0.507,0,1.062,0.034,1.667,0.112   c4.291,0.557,10.831,4.457,13.146,6.686c0.427,0.41,0.794,0.586,1.097,0.586c1.342,0,1.402-3.449-0.409-5.203   c-2.218-2.148-7.197-3.82-6.261-4.616c0.244-0.207,0.746-0.285,1.386-0.285c1.816,0,4.746,0.624,6.059,0.683   c0.073,0.003,0.132,0.005,0.178,0.005c1.074,0-4.916-0.893-4.987-3.03c-0.074-2.229,1.278-2.786,5.115-2.945   c0.343-0.014,0.679-0.021,1.006-0.021c3.217,0,5.548,0.669,5.654,1.581c-0.026-0.347-0.094-0.686-0.225-1.006   c-0.701-1.716-4.317-1.834-5.301-1.834c-0.157,0-0.247,0.003-0.247,0.003l0,0l0,0c0,0-0.571-0.014-1.368-0.014   C298.477,327.649,298.472,327.649,298.468,327.649"/><path fill="#2C0E0B" d="M285.664,335.714l-0.18,0.129l0.129,0.179c0.038,0.007,3.859,0.652,6.858,2.214   c2.984,1.554,4.178,3.073,4.189,3.087l0.124,0.062l0.096-0.033l0.028-0.219c-0.048-0.064-1.239-1.584-4.293-3.173   C289.572,336.372,285.703,335.72,285.664,335.714"/><path fill="#F1810E" d="M297.62,353.846c-0.028,0-0.055,0-0.083,0C297.565,353.846,297.593,353.846,297.62,353.846    M293.817,353.714c-0.002,0-0.003,0-0.005,0c1.057,0.091,2.272,0.132,3.589,0.132c0.003,0,0.006,0,0.009,0   C296.09,353.846,294.875,353.805,293.817,353.714"/><path fill="#1373C7" d="M320.488,333.639c-0.06,0.106-1.125,1.924-4.147,2.533c-1.014,0.205-2.445,0.302-3.941,0.302   c-1.75,0-3.587-0.133-4.951-0.385l-0.004,0.003c0,0,4.744,1.396,8.165,1.396c0.456,0,0.887-0.025,1.281-0.081   c0.1-0.014,0.198-0.021,0.294-0.021c3.103-0.001,3.724,7.335-0.294,10.476c-4.144,3.236-10.062,4.404-15.537,5.041   c-5.2,0.605-7.335,0.792-7.537,0.811c1.059,0.091,2.274,0.133,3.593,0.133c0.043,0,0.085,0,0.128,0c0.028,0,0.055,0,0.083,0   c9.291-0.031,23.494-2.044,24.482-2.936c1.233-1.115,0.542-11.305,0-14.189C321.594,334.022,320.612,333.672,320.488,333.639"/><path fill="#F4BB96" d="M299.85,320.819v6.844c0,0,4.734-0.159,5.548,1.831c0.814,1.99-0.787,4.696,0,5.811   c0.788,1.114,7.829,1.495,10.943,0.867c3.113-0.628,4.15-2.538,4.15-2.538v-12.418L299.85,320.819"/><path fill="#EE9961" d="M299.85,321.883v1.435c0,0,1.277,1.791,8.969,2.647c1.22,0.136,2.347,0.193,3.38,0.193   c5.477,0,8.292-1.606,8.292-1.606v-1.14c-1.967,0.223-4.91,0.399-9.304,0.399c-0.001,0-0.003,0-0.004,0c-0.002,0-0.005,0-0.007,0   c-0.042,0-0.083,0-0.125,0c-0.003,0-0.005,0-0.008,0c-0.08,0-0.16-0.001-0.239-0.001C305.716,323.765,302.2,322.876,299.85,321.883   "/><path fill="#F4BB96" d="M373.408,294.147l4.585,4.747c0,0,3.176-3.781,5.074-3.032c1.897,0.747,2.601,3.865,3.892,4.028   c1.292,0.162,6.428-5.032,8.167-7.883c1.737-2.851,1.177-4.979,1.177-4.979l-8.316-8.61L373.408,294.147"/><path fill="#EE9961" d="M388.232,278.673c-0.758,2.487-2.323,5.96-5.53,10.202c-2.042,2.701-3.947,4.772-5.616,6.35   c1.268-0.648,3.204-1.931,5.99-4.465c5.907-5.372,7.143-10.029,7.143-10.029L388.232,278.673"/><path fill="#F6AC1C" d="M313.276,247.793c4.198-0.053,7.425-1.607,10.939-3.795c0.323-0.201,0.625-0.388,0.921-0.56   c0.079-8.364,0.3-14.344,0.3-14.344s1.414,6.334,3.326,13.475c2.57,0.353,4.986,2.394,7.584,2.977   c4.391,0.986,8.991,0.335,13.092-1.503c3.452-1.547,6.406-3.735,8.888-6.43c-3.142-8.975-7.312-31.978-7.439-40.705   c-0.149-10.154-1.11-14.178-4.439-21.361c-3.33-7.185-7.354-10.126-7.354-10.126l-39.244,8.507c0,0-1.078,42.909-1.565,67.424   C302.497,245.092,306.948,247.872,313.276,247.793"/><path fill="#F6AC1C" d="M388.918 274.332c0 0-26.043-29.328-29.15-33.542-.443-.601-.939-1.73-1.461-3.231l.019.054c-6.624-5.403-11.163-6.778-14.614-5.231-4.101 1.838-13.095 4.657-14.949 10.188 1.953 7.293 4.424 15.43 6.444 18.529 3.995 6.13 35.387 38.796 35.387 38.796s5.302-2.012 12.109-11.018C389.508 279.873 388.918 274.332 388.918 274.332M325.142 242.906c-.002.09-2.187-2.957-4.893-6.004-2.679-3.016-5.869-6.032-7.957-6.007-6.326.079-6.386 2.122-14.003 10.458-.176 8.847-.41 16.932-.722 22.554-1.178 21.202-1.867 55.206-1.867 55.206s3.453 4.697 15.486 4.697c12.035 0 13.189-1.32 13.189-1.32s1.804-37.444 1.065-55.454C325.096 258.676 325.143 242.906 325.142 242.906"/><path fill="#591C16" d="M365.429 294.644l-.124-.062.028-.22c.062-.048 6.264-4.848 11.319-12.483 5.047-7.623 5.894-14.508 5.901-14.576.011-.087.084-.137.174-.139l.139.174c-.009.069-.862 7.025-5.952 14.715-5.085 7.681-11.326 12.509-11.389 12.557L365.429 294.644M308.918 314.919c-9.44 0-13.001-2.94-13.151-3.068l-.018-.221.221-.018c.036.031 3.642 2.994 12.962 2.994.158 0 .316-.001.477-.003 9.728-.104 15.271-1.558 15.325-1.573l.193.111-.11.193c-.056.014-5.632 1.479-15.404 1.583C309.247 314.919 309.081 314.919 308.918 314.919"/><path fill="#FFF" d="M382.848,267.475C382.848,267.475,382.848,267.475,382.848,267.475c3.557,4.028,6.07,6.857,6.07,6.857   s0.013,0.122,0.013,0.359c0-0.237-0.013-0.359-0.013-0.359S386.405,271.502,382.848,267.475 M359.509,240.39   c0.088,0.152,0.174,0.285,0.258,0.399c2.12,2.876,14.923,17.449,22.841,26.414c0,0,0,0,0,0   c-7.917-8.965-20.72-23.538-22.841-26.415C359.683,240.674,359.597,240.541,359.509,240.39 M354.688,223.384   c0,0,0,0.005,0.001,0.015c0.459,2.213,0.935,4.353,1.414,6.336c0.389,1.611,0.78,3.119,1.164,4.478   C356.409,231.173,355.52,227.399,354.688,223.384"/><path fill="#FCE630" d="M354.834,225.626c0.156,2.311,0.427,6.102,0.761,9.903c0.868,0.613,1.776,1.305,2.727,2.081   c-0.342-0.979-0.696-2.124-1.055-3.398c-0.384-1.359-0.775-2.867-1.164-4.478c0.191,0.793,0.383,1.562,0.574,2.3   C356.156,230.224,355.522,228.023,354.834,225.626"/><path fill="#FCE630" d="M382.848,267.475c-0.122,0.839-0.891,5.428-3.826,11.015c2.288,5.825,3.68,10.385,3.68,10.385   c5.795-7.667,6.228-12.822,6.229-14.184c0-0.237-0.013-0.359-0.013-0.359S386.405,271.502,382.848,267.475 M355.595,235.529   c0.435,4.965,0.977,9.946,1.509,11.662c1.183,3.821,7.693,5.001,14.204,15.343c2.958,4.699,5.58,10.566,7.561,15.569   c3.093-5.982,3.678-10.744,3.684-10.801c0.006-0.042,0.026-0.076,0.055-0.099c-7.917-8.965-20.72-23.538-22.841-26.414   c-0.084-0.114-0.17-0.248-0.258-0.399c-0.37-0.635-0.77-1.584-1.187-2.78C357.371,236.834,356.463,236.142,355.595,235.529"/><path fill="#973025" d="M382.608,267.204C382.608,267.204,382.608,267.204,382.608,267.204c-0.029,0.024-0.049,0.057-0.055,0.099   c-0.006,0.056-0.591,4.819-3.684,10.801c0.051,0.13,0.102,0.258,0.152,0.387c2.935-5.587,3.704-10.176,3.826-11.015c0,0,0,0,0,0   C382.769,267.385,382.688,267.294,382.608,267.204"/><path fill="#E56630" d="M311.049,323.81c0.042,0,0.083,0,0.125,0c0.002,0,0.005,0,0.007,0   C311.138,323.81,311.093,323.81,311.049,323.81 M310.802,323.808c0.079,0.001,0.159,0.001,0.239,0.001   C310.961,323.809,310.882,323.809,310.802,323.808"/><path fill="#F1820E" d="M319.065,198.919c0,0,0.338,20.862,1.029,37.809c0.052,0.058,0.104,0.116,0.155,0.174   c2.6,2.928,4.719,5.855,4.882,6c0.083-8.079,0.296-13.798,0.296-13.798L319.065,198.919"/><path fill="#F1820E" d="M324.756,313.35c-0.524,0.131-4.449,1.071-11.124,1.433c-3.415,5.567-7.479,8.63-7.567,8.696   c1.407,0.188,2.967,0.314,4.736,0.33c0.08,0.001,0.159,0.001,0.239,0.001c0.003,0,0.005,0,0.008,0c0.044,0,0.088,0,0.133,0   c12.027,0,13.182-1.32,13.182-1.32S324.538,318.874,324.756,313.35 M320.094,236.728c0.291,7.132,0.644,13.571,1.062,17.469   c1.409,13.16-1.211,36.51-3.254,49.246c-0.694,4.321-2.28,8.017-4.073,11.014c6.969-0.393,10.858-1.414,10.904-1.426l0.034,0.02   c0.483-12.304,1.166-33.701,0.66-46.015c-0.344-8.36-0.368-17.133-0.296-24.134c-0.164-0.145-2.282-3.072-4.882-6   C320.198,236.844,320.146,236.786,320.094,236.728"/><path fill="#2C0E0B" d="M324.733,313.031c-0.046,0.013-3.935,1.033-10.904,1.426c-0.065,0.109-0.131,0.218-0.197,0.325   c6.674-0.362,10.599-1.302,11.124-1.433c0.004-0.099,0.008-0.199,0.012-0.299L324.733,313.031"/><path fill="#FFF" d="M349.91,185.354c0.174,0.847,0.32,1.723,0.442,2.648c0.001,0,0.002,0.001,0.003,0.001   c-0.122-0.925-0.269-1.8-0.442-2.647L349.91,185.354"/><path fill="#FCE630" d="M347.325,183.032c-0.009,0.034-0.018,0.069-0.027,0.106l0,0l0,0c-0.183,0.756-0.356,2.153,0.462,3.225   c0.654,0.858,1.678,1.319,2.591,1.639c-0.122-0.925-0.268-1.801-0.442-2.648L347.325,183.032"/><path fill="#FFF" d="M350.684,191.379c-0.001,0-0.002,0-0.003,0c0.111,1.64,0.175,3.456,0.206,5.528   c0.08,5.513,1.774,16.726,3.803,26.498c0-0.003,0-0.005,0-0.007c-2.027-9.771-3.719-20.973-3.799-26.482   C350.859,194.841,350.795,193.022,350.684,191.379"/><path fill="#FCE630" d="M347.093,190.483c0.013,0.176,0.025,0.351,0.035,0.523c0.311,0.82,0.776,2.146,0.941,3.141   c0.225,1.351,0.017,2.467-0.83,3.036c0.056,0.918,0.169,1.837,0.395,2.793c0.631,2.677,4.374,15.805,7.2,25.65   c-0.085-1.26-0.136-2.079-0.145-2.22c-2.029-9.773-3.723-20.985-3.803-26.498c-0.03-2.072-0.094-3.888-0.206-5.528   c-0.04,0.001-0.08,0.002-0.121,0.002c-0.119,0-0.245-0.006-0.377-0.018C348.362,191.191,347.479,190.754,347.093,190.483"/><path fill="#FFF" d="M354.689,223.398c0,0.002,0,0.004,0,0.007c0.459,2.211,0.935,4.348,1.414,6.329   C355.624,227.751,355.148,225.611,354.689,223.398"/><path fill="#FEF852" d="M354.689,223.405c0.009,0.141,0.06,0.96,0.145,2.22c0.688,2.397,1.322,4.599,1.843,6.408   c-0.191-0.738-0.383-1.506-0.574-2.3C355.624,227.753,355.148,225.617,354.689,223.405"/><path fill="#F1BA96" d="M259.72,144.824c0.601,0.152,1.315-0.063,1.315-0.063s4.949,1.768,6.432,2.579   c1.481,0.812,3.848,1.787,3.848,1.787l0.09-0.104c-0.09,0.104,2.139,4.811,2.139,4.811l12.738-7.153l-2.079-4.169   c-0.854-2.714-4.495-5.248-6.609-7.1c-0.451-0.396-0.874-0.774-1.206-1.088c-1.393-1.315-4.309-5.595-5.577-5.669   c-1.268-0.074-3.107,1.499-3.107,1.499s-9.217-8.541-10.666-8.601c-1.45-0.06-3.382,1.61-2.633,3.033   c0.75,1.423,6.161,6.623,6.161,6.623s-1.863,0.286-2.757,1.207c-0.896,0.921-0.735,1.958-0.735,1.958s-1.502,0.15-2.297,1.204   c-0.796,1.054-0.312,2.337-0.312,2.337s-1.079,0.529-1.388,1.82c-0.308,1.291-0.126,1.861,0.194,2.091   S259.119,144.672,259.72,144.824z"/><path fill="#591C16" d="M268.98,141.967l-0.095-0.044c-0.058-0.066-1.412-1.655-1.586-3.118c-0.116-0.97,0.322-2.008,0.646-2.621   c-0.783,0.572-2.277,1.614-2.99,1.772c-0.399,0.087-0.863-0.088-1.279-0.481c-0.539-0.509-1.017-1.424-0.87-2.324   c0.222-1.367,4.63-4.942,4.817-5.095l0.176,0.02l-0.02,0.176c-0.045,0.036-4.521,3.666-4.728,4.939   c-0.131,0.81,0.305,1.64,0.795,2.103c0.354,0.335,0.736,0.485,1.054,0.419c0.917-0.203,3.368-2.081,3.393-2.1l0.162,0.008   l0.018,0.161c-0.011,0.017-1.09,1.618-0.926,2.994c0.165,1.386,1.514,2.969,1.527,2.985l-0.014,0.176L268.98,141.967z"/><polygon fill="#591C16" points="263.501 134.271 263.412 134.234 260.476 131.297 260.477 131.12 260.653 131.121 263.59 134.059 263.589 134.235"/><path fill="#591C16" d="M264.81,139.911h-0.019c-1.323-0.015-7.535-5.22-7.799-5.441l-0.016-0.176l0.176-0.016   c1.778,1.493,6.617,5.371,7.641,5.383h0.016c0.585,0,1.011-0.351,1.266-0.647c0.394-0.456,0.551-0.973,0.532-1.093   c-0.04-0.246-0.303-0.573-0.401-0.679l0.007-0.177l0.177,0.007c0.016,0.018,0.404,0.438,0.464,0.81   c0.04,0.243-0.192,0.836-0.589,1.295C265.975,139.513,265.488,139.911,264.81,139.911z"/><path fill="#591C16" d="M262.873,142.806l-0.142-0.005c-1.16-0.093-8.045-4.59-8.337-4.781l-0.036-0.173l0.173-0.036   c2.459,1.609,7.342,4.671,8.22,4.74c0.962,0.085,1.413-0.773,1.635-1.499c0.126-0.416-0.241-1.176-0.393-1.434l0.044-0.171   l0.171,0.044c0.024,0.042,0.601,1.026,0.416,1.633C264.289,142.228,263.685,142.806,262.873,142.806z"/><path fill="#591C16" d="M261.035,144.886l-0.119-0.089l0.083-0.155c0.007-0.003,0.676-0.213,1.054-0.824   c0.368-0.597,0.049-1.244,0.046-1.25l0.055-0.168l0.168,0.055c0.017,0.032,0.385,0.78-0.056,1.494   c-0.43,0.694-1.163,0.923-1.194,0.933L261.035,144.886z"/><path fill="#26A2DA" d="M298.209,182.374l19.572,0.142l15.784,0.115l16.507,0.121c0,0,0.783-8.148,1.059-18.45   c0.338-12.908-0.135-29.186-3.956-37.098c-0.863-1.796-1.903-3.16-3.146-3.956l-0.101-0.061c-0.169-0.102-0.338-0.196-0.513-0.277   c-10.323-4.814-23.4-3.828-30.975-1.262l-0.168,0.054c-1.088,0.379-2.053,0.783-2.876,1.209c-0.703,0.364-1.384,1.323-2.033,2.747   c-3.713,8.102-6.596,31.245-8.068,45.334C298.593,177.709,298.209,182.374,298.209,182.374"/><path fill="#26A2DA" d="M345.069,154.384v0.007c0.379,2.537,0.87,4.652,1.505,6.029c0.811,1.756,2.457,3.025,4.557,3.882   c5.611,2.288,14.401,1.607,18.783-0.75c1.013-0.547,1.795-1.182,2.241-1.89c0.621-0.986,0.885-2.046,0.85-3.179   c-0.061-3.18-2.355-6.961-5.104-11.396l-0.027-0.055c-1.133-1.837-2.348-3.788-3.511-5.861c-0.837-1.485-1.965-2.984-3.274-4.442   l-0.041-0.04c-6.089-6.811-15.932-12.793-17.02-13.441l-0.101-0.061c0,0-0.027,0.979-0.048,2.626   C343.793,131.578,343.752,145.547,345.069,154.384"/><path fill="#1373C7" d="M335.591,145.104l4.502,9.936c-1.465,3.164-5.913,12.716-7.717,15.965   c-2.174,3.922-5.516,5.793-7.474,7.757c-0.992,0.999-4.205,2.511-7.121,3.753l8.485,0.062c0.876-0.452,2.313-1.047,3.111-1.609   c1.168-0.825,1.855-3.093,3.024-4.742c1.167-1.649,3.196-2.13,3.196-2.13l0,0l0.669-1.002l-1.262-1.134l-1.047-0.853l8.162-11.585   l-0.01-0.035l0.015,0.033l3.037-4.54c-0.031-0.194-0.062-0.39-0.091-0.589v-0.007c-0.181-1.215-0.336-2.526-0.469-3.9   c-0.942,0.234-1.821,0.3-2.516,0.3c-0.143,0-0.279-0.003-0.405-0.008L335.591,145.104"/><path fill="#1373C7" d="M349.971,148.711c-1.154,0-2.462,0.761-4.416,1.48c-0.323,0.119-0.643,0.215-0.956,0.293   c0.133,1.374,0.289,2.685,0.469,3.9v0.007c0.03,0.199,0.06,0.395,0.091,0.589l0.395-0.591c0,0,6.916-4.707,5.466-5.432   C350.676,148.785,350.331,148.711,349.971,148.711"/><path fill="#26A2DA" d="M268.321,151.976c0,0,0.203,2.307,2.464,8.471v0.007c1.31,3.578,2.856,6.879,4.462,8.405   c4.389,4.159,21.51,4.968,24.048,2.133l0.007-0.006c0.669-0.763,0.121-2.897-1.046-5.624c-3.228-7.521-11.146-19.518-11.146-19.518   h-0.006L268.321,151.976"/><path fill="#F4BB96" d="M336.339,172.983l-0.743,1.113c0,0-2.028,0.481-3.196,2.13c-1.169,1.649-1.856,3.918-3.024,4.742   c-1.168,0.824-3.711,1.718-3.848,2.13c-0.137,0.411,0.206,1.786,2.199,2.267c1.993,0.482,5.652-1.706,5.652-1.706   s-1.082,2.857-0.875,6.362c0.206,3.505,1.751,8.401,3.092,8.969c1.339,0.567,2.474,0.619,3.092,0   c0.618-0.618,0.825-1.134,0.825-1.134s0.773,2.216,1.598,2.578c0.824,0.36,2.164,0.258,2.834-0.567   c0.67-0.825,0.567-2.32,0.567-2.32s1.133,0.309,2.32-0.154c1.184-0.464,1.494-1.701,1.236-3.247   c-0.258-1.547-1.239-3.895-1.239-3.895s0.621,0.853,3.352,1.111c2.732,0.258,2.681-2.268,1.907-2.732   c-0.774-0.463-3.15-0.722-4.329-2.267c-1.18-1.546-0.298-3.769-0.298-3.769L336.339,172.983"/><path fill="#591C16" d="M339.513 197.981l-.118-.085c-.013-.036-1.212-3.645-1.702-6.459-.49-2.817-.465-4.016-.464-4.064l.128-.122.122.128c0 .013-.024 1.229.46 4.016.487 2.796 1.681 6.387 1.692 6.422l-.078.158L339.513 197.981zM344.513 197.673l-.118-.085c-.012-.033-1.152-3.388-1.674-5.682-.521-2.3-.526-4.142-.526-4.16l.125-.125.125.125c0 .018.007 1.834.521 4.105.518 2.28 1.654 5.622 1.666 5.656l-.078.158L344.513 197.673z"/><polygon fill="#591C16" points="346.83 190.377 346.714 190.298 346.205 189.002 346.275 188.84 346.438 188.91 346.946 190.206 346.876 190.368"/><path fill="#26A2DA" d="M334.996 171.953l16.534 14.856c0 0 9.978-9.418 16.344-17.789l.007-.007c3.214-4.219 5.502-8.168 5.131-10.511l-.007-.019c-.195-1.209-1.175-2.121-2.653-2.803-7.013-3.24-24.533-1.275-24.533-1.275l-.114.12L334.996 171.953M281.492 166.833c.081.743.46 1.466 1.067 2.12 2.875 3.133 10.916 4.923 16.735 2.039l.007-.006c.189-.088.372-.182.553-.284.317-.182.629-.378.932-.587 5.854-4.078 10.154-35.417 11.39-45.429.237-1.931.359-3.065.359-3.065l-.096.027-.168.054c-2.04.635-15.218 4.854-18.661 9.438-.547.736-1.209 1.925-1.938 3.443l-.005.021c-.419.864-.859 1.83-1.303 2.876l-.02.04c-1.047 2.452-2.162 5.334-3.234 8.325h-.006C283.978 154.553 281.202 164.194 281.492 166.833"/><polyline fill="#1A5BB7" points="287.108 145.841 287.109 145.844 287.11 145.844 287.11 145.843 287.108 145.841"/><path fill="#1373C7" d="M287.11,145.843C287.11,145.843,287.11,145.843,287.11,145.843L287.11,145.843l5.626,14.448   c0.157,0.108,0.281,0.157,0.375,0.157c0.987,0-1.197-5.389-1.197-5.389c0.85,0.082,2.617,1.557,3.505,1.557   c0.23,0,0.402-0.099,0.483-0.347C296.293,155.075,287.262,145.996,287.11,145.843"/><polygon fill="#591C16" points="291.914 157.782 291.798 157.702 287.417 146.34 287.488 146.179 287.649 146.25 292.03 157.612 291.959 157.773"/><polygon fill="#591C16" points="293.61 154.789 293.547 154.771 289.855 152.59 289.812 152.419 289.982 152.375 293.674 154.557 293.718 154.728"/><path fill="#1A5BB7" d="M275.364,168.966c1.566,1.393,4.574,2.399,7.953,3.007l0,0C279.938,171.366,276.93,170.36,275.364,168.966    M275.305,168.913c0.003,0.003,0.007,0.007,0.011,0.01C275.313,168.92,275.309,168.917,275.305,168.913"/><path fill="#0D2E93" d="M283.318,171.974L283.318,171.974c2.051,0.369,4.238,0.591,6.323,0.664l0,0   C287.557,172.564,285.368,172.342,283.318,171.974"/><path fill="#166CDF" d="M289.641,172.637L289.641,172.637c0.498,0.017,0.99,0.026,1.473,0.026   C290.63,172.663,290.139,172.655,289.641,172.637"/><path fill="#1373C7" d="M270.785,160.454c1.31,3.578,2.856,6.879,4.462,8.405c0.019,0.018,0.039,0.036,0.059,0.055   c0.003,0.003,0.007,0.007,0.011,0.01c0.016,0.014,0.032,0.029,0.048,0.043c1.566,1.393,4.574,2.399,7.954,3.007   c2.05,0.369,4.239,0.591,6.323,0.664c0.498,0.017,0.99,0.026,1.473,0.026c0.008,0,0.015,0,0.023,0c0.005,0,0.01,0,0.015,0   c3.776-0.001,6.987-0.527,8.069-1.594c0.026-0.026,0.051-0.052,0.074-0.078l0,0c-2.053,1.018-4.383,1.453-6.666,1.453   c-4.185,0-8.209-1.465-10.069-3.492l0,0C278.076,167.758,273.56,165.273,270.785,160.454"/><path fill="#1373C7" d="M303.324,141.172c0,0-4.03,15.102-5.241,24.536c-1.108,2.181-2.573,3.904-4.472,4.089   c-0.895,0.092-1.952,0.154-3.12,0.154c-2.345,0-5.133-0.249-7.932-0.998l0,0l0,0c1.86,2.027,5.885,3.492,10.069,3.492   c2.282,0,4.612-0.436,6.666-1.453l0,0l0.007-0.006c0.189-0.088,0.372-0.182,0.553-0.284l0.229-2.974L303.324,141.172"/><polyline fill="#FAD918" points="347.299 183.138 347.299 183.138 347.299 183.138 347.299 183.138"/><polyline fill="#EE9961" points="336.265 173.094 335.596 174.096 347.299 183.138 347.299 183.138 342.668 178.847 336.265 173.094"/><polyline fill="#1373C7" points="336.339 172.983 336.265 173.094 342.668 178.847 336.339 172.983"/><path fill="#41E3F4" d="M367.901,147.087c0.251,0.465,1.951,3.84,2.45,8.593l0,0c1.479,0.682,2.458,1.594,2.653,2.803   C372.944,155.303,370.649,151.521,367.901,147.087"/><path fill="#41E3F4" d="M370.351 155.68c.258 2.35.217 5.03-.438 7.872-.412 1.776-1.06 3.612-2.033 5.461 2.988-3.923 5.176-7.612 5.17-9.994 0-.18-.013-.353-.039-.518l-.007-.019 0 0C372.809 157.274 371.83 156.362 370.351 155.68M314.345 121.068c-.667.182-1.304.376-1.906.58l.096-.027 0 0c0 0-.122 1.134-.359 3.065.292-.05.588-.1.886-.148.55-1.167 1.321-2.073 1.321-2.073l0 0L314.345 121.068M331.98 119.813l-.012.062c.114-.004.228-.006.342-.006.049 0 .098 0 .146.001C332.297 119.85 332.139 119.831 331.98 119.813"/><path fill="#41E3F4" d="M312.535 121.62l-.096.027-.168.054c-.715.223-2.799.885-5.353 1.85-2.468.933-5.374 2.147-7.907 3.518-2.322 1.257-4.332 2.646-5.401 4.07-.547.736-1.209 1.925-1.938 3.443 2.573-4.239 7.542-7.021 15.691-8.925 1.498-.351 3.098-.674 4.813-.972l0 0C312.413 122.755 312.535 121.62 312.535 121.62M333.412 120.001c.09.19.56 1.345-.281 3.2 3.919.439 7.522 1.399 10.748 2.612l0 0c.02-1.648.048-2.626.048-2.626-.169-.102-.338-.196-.513-.277C340.26 121.439 336.847 120.509 333.412 120.001"/><path fill="#41E3F4" d="M343.927,123.187L343.927,123.187c0,0-0.027,0.979-0.048,2.626c1.148,0.439,2.249,0.904,3.295,1.391   c8.291,3.848,13.387,8.985,13.874,9.485c-6.089-6.811-15.932-12.793-17.02-13.441L343.927,123.187"/><polyline fill="#41E3F4" points="290.364 137.479 290.344 137.519 290.344 137.534 290.364 137.479"/><path fill="#1C5A7F" d="M333.398,119.973c0,0,1.671,3.037-4.073,7.695c-6.395,5.188-15.67,2.059-16.6-0.051   c-0.93-2.112,1.659-5.154,1.659-5.154l15.996-2.455C330.38,120.009,332.449,119.72,333.398,119.973"/><path fill="#F05A3B" d="M330.012,88.818c0,0,0.356-13.68,11.421-13.333c11.063,0.348,14.051,10.595,9.727,16.517   c-4.325,5.923-12.483,6.727-16.278,3.845C331.088,92.964,330.505,90.632,330.012,88.818"/><path fill="#7F7F7F" d="M330.016,88.705c-0.018,0.012-0.028,0.019-0.029,0.02l-0.001,0.003l0.028,0.026   C330.015,88.739,330.016,88.723,330.016,88.705"/><path fill="#E82D1D" d="M352.606,83.06c0.044,0.301,0.271,2.399-1.19,5.919c-1.311,3.157-4.34,5.213-7.107,5.213   c-0.571,0-1.131-0.088-1.663-0.271c-3.104-1.069-2.812-5.508-6.567-6.196c-0.634-0.117-1.229-0.165-1.778-0.165   c-2.486,0-4.056,0.991-4.286,1.145c-0.001,0.018-0.001,0.034-0.002,0.048l0.055,0.051c0.243-0.059,1.229-0.277,2.483-0.277   c1.572,0,3.564,0.343,5.035,1.775c2.59,2.52,2.863,6.429,2.89,7.068c3.711-0.035,7.939-1.734,10.655-5.455   C352.982,89.382,353.49,86.06,352.606,83.06"/><path fill="#F05A3B" d="M310.61,105.567c0,0-1.824-4.696,2.14-10.468c5.418-7.895,16.601-9.27,25.067-2.284   c4.802,3.961,3.982,16.879,0.016,20.853c-3.962,3.975-6.162,4.874-6.162,4.874L310.61,105.567"/><path fill="#26A0DA" d="M330.012,88.818c0,0,1.527,0.273,4.621,1.926c3.092,1.653,5.848,6.715,5.848,6.715   s-0.066-4.407-2.894-7.158C334.761,87.551,330.012,88.818,330.012,88.818"/><path fill="#FFF" d="M329.943,88.795c0.023,0.006,0.045,0.011,0.068,0.017c0,0,0,0,0,0   C329.989,88.806,329.966,88.801,329.943,88.795"/><path fill="#EFF8FF" d="M312.547,95.403c-0.552,0.818-0.888,1.457-1.119,1.999C311.729,96.756,312.097,96.087,312.547,95.403"/><path fill="#FB9964" d="M325.87,88.304c-5.167,0-10.016,2.388-13.11,6.79c-0.074,0.106-0.146,0.209-0.213,0.309   c-0.449,0.684-0.818,1.353-1.119,1.999c-0.42,0.985-0.492,1.649-0.881,2.478c0.066-0.107,2.753-5.569,7.457-8.414   c4.121-2.492,10.121-2.657,11.648-2.657c0.208,0,0.334,0.003,0.359,0.004c-0.023-0.006-0.045-0.011-0.068-0.017   C328.581,88.465,327.214,88.304,325.87,88.304"/><path fill="#7F7F7F" d="M336.863,114.617c-0.001,0.001-0.003,0.001-0.004,0.002c-2.211,2.095-3.765,3.134-4.565,3.598l0,0.001   C333.094,117.755,334.649,116.715,336.863,114.617 M340.124,109.468c-0.28,0.883-0.615,1.697-1.002,2.411   c0,0.001,0,0.002-0.001,0.003C339.508,111.168,339.844,110.352,340.124,109.468 M340.148,109.39   c-0.007,0.023-0.014,0.046-0.021,0.068C340.134,109.435,340.141,109.413,340.148,109.39 M340.168,109.328   c-0.003,0.009-0.006,0.018-0.009,0.028C340.162,109.346,340.165,109.337,340.168,109.328"/><path fill="#E82D1D" d="M336.859 114.62c-1.006.545-2.134.669-2.94.707-.441.327-.86.6-1.216.816l-.408 2.076C333.094 117.754 334.647 116.714 336.859 114.62M341.003 100.346c-.02.049-1.323 3.158-2.945 3.158-.259 0-.527-.079-.798-.263-.268-.182-.524-.261-.767-.261-1.227 0-2.109 2.012-2.425 2.856.466-.154.921-.227 1.356-.227.047-.002.094-.003.14-.003 2.598 0 4.492 2.588 3.575 6.205-.006.023-.012.046-.018.068.387-.714.722-1.528 1.002-2.411.001-.004.002-.006.003-.01.007-.023.014-.046.021-.068.004-.011.007-.023.011-.034.003-.009.006-.018.009-.028C340.993 106.645 341.312 103.357 341.003 100.346M340.481 97.458C340.481 97.458 340.481 97.458 340.481 97.458 340.481 97.458 340.481 97.458 340.481 97.458M330.027 88.814l-.004.001c0 0 .001 0 .001 0 .001 0 .003-.001.004-.001C330.028 88.814 330.027 88.814 330.027 88.814M334.363 90.602c.066.034.132.069.199.105C334.495 90.671 334.428 90.636 334.363 90.602M334.302 90.57c.017.009.033.017.05.026C334.335 90.587 334.319 90.579 334.302 90.57M334.234 90.534c.016.008.032.017.049.025C334.266 90.551 334.25 90.543 334.234 90.534M334.171 90.502c.014.007.029.015.043.022C334.2 90.517 334.185 90.509 334.171 90.502M334.108 90.47c.012.006.024.012.036.019C334.133 90.482 334.12 90.476 334.108 90.47M334.043 90.436c.011.006.022.011.034.017C334.065 90.448 334.054 90.442 334.043 90.436M333.981 90.404c.01.005.019.01.029.015C334 90.414 333.99 90.409 333.981 90.404M333.918 90.373c.007.004.015.008.023.012C333.933 90.38 333.926 90.377 333.918 90.373M333.854 90.341c.007.003.014.007.021.01C333.868 90.348 333.861 90.344 333.854 90.341M333.799 90.313c.002.001.004.002.007.003C333.803 90.315 333.802 90.314 333.799 90.313M330.019 88.82L330.019 88.82c.004.001.015.003.033.007C330.037 88.823 330.026 88.821 330.019 88.82M330.022 88.815l-.007.002.001.001c.002 0 .004-.001.008-.002C330.023 88.815 330.023 88.815 330.022 88.815"/><path fill="#1370C7" d="M330.028,88.814c-0.001,0-0.003,0.001-0.004,0.001c-0.003,0.001-0.006,0.001-0.008,0.002l0.003,0.003   c0.007,0.001,0.018,0.003,0.033,0.007c0.216,0.045,1.457,0.338,3.747,1.486c0.002,0.001,0.004,0.002,0.007,0.003   c0.016,0.008,0.032,0.016,0.049,0.024c0.007,0.003,0.014,0.007,0.021,0.01c0.014,0.007,0.028,0.014,0.043,0.022   c0.008,0.004,0.015,0.008,0.023,0.012c0.013,0.007,0.027,0.013,0.04,0.02c0.01,0.005,0.019,0.01,0.029,0.015   c0.011,0.006,0.022,0.011,0.033,0.017c0.011,0.006,0.022,0.012,0.034,0.017c0.01,0.005,0.021,0.011,0.031,0.016   c0.012,0.006,0.024,0.013,0.036,0.019c0.009,0.004,0.018,0.009,0.026,0.013c0.014,0.007,0.029,0.015,0.043,0.022   c0.006,0.003,0.013,0.007,0.02,0.01c0.016,0.008,0.032,0.017,0.049,0.025c0.006,0.003,0.013,0.007,0.02,0.01   c0.017,0.009,0.033,0.017,0.05,0.026c0.003,0.002,0.007,0.004,0.011,0.006c0.065,0.034,0.132,0.069,0.199,0.105   c0.023,0.012,0.047,0.025,0.071,0.038c3.092,1.65,5.848,6.715,5.848,6.715s0-0.001,0-0.002c0,0,0,0,0,0   c-0.002-0.1-0.096-4.039-2.525-6.762c0.071,0.124,0.408,0.775-0.288,0.873c-0.025,0.003-0.052,0.005-0.079,0.005   c-0.82,0-2.749-1.498-4.343-2.033C331.648,89.003,330.12,88.825,330.028,88.814"/><path fill="#FFF" d="M344.807,75.945c0.001,0,0.004,0.001,0.005,0.001C344.81,75.946,344.809,75.945,344.807,75.945    M344.731,75.926c0.005,0.001,0.011,0.003,0.016,0.004C344.741,75.928,344.736,75.927,344.731,75.926 M344.649,75.906   c0.006,0.002,0.012,0.003,0.018,0.004C344.661,75.909,344.655,75.907,344.649,75.906 M344.564,75.885   c0.012,0.003,0.026,0.006,0.039,0.009C344.59,75.891,344.577,75.888,344.564,75.885 M341.388,75.484   c0.015,0,0.03,0.001,0.045,0.001c1.12,0.035,2.157,0.172,3.112,0.395c-0.954-0.223-1.99-0.36-3.109-0.395   C341.419,75.485,341.404,75.485,341.388,75.484 M341.31,75.482c0.021,0,0.041,0.001,0.061,0.001   C341.351,75.483,341.33,75.483,341.31,75.482 M341.228,75.481c0.003,0,0.006,0,0.009,0   C341.234,75.481,341.231,75.481,341.228,75.481"/><path fill="#FB9964" d="M341.027,75.479c-6.393,0-9.076,4.79-10.2,8.629c0.031-0.057,3.525-6.614,8.78-7.581   c0.712-0.131,1.419-0.188,2.11-0.188c4.356,0,8.057,2.254,8.178,2.329c-1.292-1.224-2.983-2.187-5.083-2.723   c-0.001,0-0.003-0.001-0.005-0.001c-0.02-0.005-0.04-0.01-0.061-0.015c-0.005-0.001-0.011-0.003-0.016-0.004   c-0.021-0.005-0.042-0.01-0.063-0.016c-0.006-0.002-0.012-0.003-0.018-0.004c-0.016-0.004-0.031-0.007-0.047-0.011   c-0.013-0.003-0.026-0.006-0.039-0.009c-0.007-0.002-0.013-0.003-0.019-0.005c-0.956-0.223-1.992-0.36-3.112-0.395   c-0.015,0-0.03-0.001-0.045-0.001c-0.005,0-0.011,0-0.016,0c-0.021-0.001-0.041-0.001-0.061-0.001   c-0.024-0.001-0.049-0.001-0.073-0.001c-0.003,0-0.006,0-0.009,0C341.161,75.48,341.094,75.479,341.027,75.479"/><path fill="#F3BA95" d="M310.406,112.561c0.469,2.296,1.657,4.309,3.58,5.556c0.089,0.059,0.186,0.116,0.281,0.173   c0.721,0.429,1.538,0.75,2.46,0.949c2.758,0.595,5.723,0.201,8.333-0.52c4.219-1.164,7.56-3.19,7.789-3.325   c0.356-0.217,5.071,0.6,6.133-3.621c1.063-4.223-1.715-7.025-4.953-5.925c-1.197,0.405-1.868,1.313-2.251,2.116   c-0.382,0.814-0.467,1.514-0.467,1.514s-2.029,1.169-3.024,0.06c-0.918-1.008-0.488-3.515-0.488-3.515   c-0.261-0.353-0.538-0.725-0.834-1.114c-2.497-3.242-3.518-7.317-3.518-7.317s-2.644,1.695-5.868,1.984   c-3.226,0.29-5.992-1.038-5.992-1.038S309.745,109.327,310.406,112.561"/><path fill="#F3BA95" d="M314.256,117.895l0.25,8.857c0,0,2.188,1.112,8.339,1.206c6.143,0.094,8.534-5.087,8.534-5.087l1.47-7.477   L314.256,117.895"/><polyline fill="#ED9760" points="314.265 118.289 314.267 118.291 314.267 118.289 314.265 118.289"/><path fill="#ED9760" d="M325.68,118.064c0,0-1.74,1.007-5.081,1.204c-0.268,0.016-0.533,0.023-0.793,0.023   c-1.538,0-2.914-0.25-3.911-0.5c-0.978-0.246-1.589-0.491-1.629-0.501v0.001c0,0,0,0,0,0l0.086,3.059   c0.627,0.029,1.856,0.078,3.162,0.078c1.595,0,3.305-0.073,4.17-0.344c1.256-0.39,2.611-1.601,3.374-2.363   C325.445,118.338,325.68,118.064,325.68,118.064"/><path fill="#591C16" d="M318.937 111.043h-.004c-.396-.013-2.38-.103-2.65-.618-.262-.502 1.132-4.012 1.413-4.71l.163-.069.069.163c-.81 2.003-1.562 4.234-1.425 4.5.15.284 1.516.454 2.438.484l.121.129L318.937 111.043zM334.272 113.585l-.092-.041c-.045-.048-1.09-1.209-.858-2.839.228-1.606.93-2.492.959-2.528l.176-.02.02.176c-.007.009-.69.873-.906 2.407-.215 1.51.784 2.624.794 2.636l-.008.176L334.272 113.585z"/><path fill="#591C16" d="M333.422 111.08l-.054-.012-.06-.166c.02-.042.491-1.016 1.701-1.05l.062-.001c1.158 0 2.397.911 2.45.95l.026.175-.175.026c-.013-.01-1.228-.901-2.303-.901l-.053.001c-1.054.029-1.466.87-1.482.906L333.422 111.08zM318.427 114.411c-.095 0-.19-.003-.288-.008-1.621-.087-3.394-.68-3.411-.686l-.078-.158.158-.078c.018.006 1.758.587 3.345.672 1.571.092 2.879-.608 2.891-.616l.17.051-.051.17C321.109 113.786 319.932 114.411 318.427 114.411zM321.321 105.707c-.1.651.142 1.229.539 1.291.397.06.803-.418.901-1.07.1-.652-.141-1.23-.54-1.291C321.824 104.576 321.421 105.055 321.321 105.707zM312.748 104.572c-.1.652.142 1.23.539 1.291.398.061.803-.417.902-1.069s-.142-1.229-.541-1.291C313.252 103.442 312.848 103.92 312.748 104.572zM323.927 104.259l-.104-.056c-.005-.009-.567-.847-1.383-1.163-.829-.322-1.275-.347-1.28-.347l-.119-.131.125-.119h.005c.02.001.486.024 1.359.364.892.345 1.478 1.22 1.502 1.257l-.035.174L323.927 104.259zM312.051 102.446l-.056-.013-.057-.17c.022-.047.18-.299 1.071-.646.919-.358 2.191-.096 2.245-.085l.097.147-.147.097c-.013-.002-1.254-.255-2.104.073-.799.312-.938.525-.939.527L312.051 102.446z"/><path fill="#FFF" d="M339.122,111.883c-0.128,0.236-0.261,0.462-0.4,0.675c-0.045,0.107-0.094,0.21-0.144,0.308   c-0.052,0.25-0.092,0.419-0.1,0.453C338.742,112.921,338.968,112.453,339.122,111.883"/><path fill="#7F7F7F" d="M339.122,111.88c-0.127,0.236-0.26,0.46-0.399,0.673c-0.001,0.002-0.001,0.004-0.002,0.005   c0.139-0.213,0.272-0.438,0.4-0.675C339.122,111.882,339.122,111.881,339.122,111.88"/><path fill="#F13F29" d="M335.565,105.606c-0.047,0-0.093,0.001-0.14,0.003l0,0c2.58,0,4.463,2.567,3.557,6.165   c-0.071,0.281-0.158,0.54-0.259,0.779c0.138-0.212,0.271-0.437,0.399-0.673c0.006-0.023,0.012-0.045,0.018-0.068   C340.058,108.194,338.163,105.607,335.565,105.606"/><path fill="#F8D6BF" d="M335.425,105.609L335.425,105.609c-0.404,0.014-0.823,0.091-1.251,0.235   c-0.406,0.136-0.748,0.334-1.043,0.562c0.07-0.025,0.849-0.293,1.776-0.293c0.669,0,1.415,0.14,2.028,0.611   c1.506,1.156,2.001,3.016,1.941,4.101c-0.038,0.701-0.193,1.536-0.299,2.042c0.051-0.099,0.099-0.201,0.144-0.308   c0.001-0.002,0.001-0.004,0.002-0.005c0.101-0.238,0.188-0.497,0.259-0.779C339.888,108.176,338.005,105.609,335.425,105.609"/></svg>